<mxfile host="app.diagrams.net" modified="2021-04-11T02:15:38.000Z" agent="5.0 (Windows NT 10.0; Win64; x64) AppleWebKit/537.36 (KHTML, like Gecko) Chrome/89.0.4389.114 Safari/537.36 Edg/89.0.774.75" etag="zuxSJ07ff_Cu_R3ezanu" version="13.10.0" type="github">
  <diagram id="4S7P0jjBYmZfe0e2-zOa" name="第 1 页">
    <mxGraphModel dx="1422" dy="763" grid="1" gridSize="10" guides="1" tooltips="1" connect="1" arrows="1" fold="1" page="1" pageScale="1" pageWidth="827" pageHeight="1169" math="0" shadow="0">
      <root>
        <mxCell id="0" />
        <mxCell id="1" parent="0" />
        <mxCell id="thT0tMfzGtY_ff9w-yVD-28" style="edgeStyle=orthogonalEdgeStyle;rounded=0;orthogonalLoop=1;jettySize=auto;html=1;exitX=1;exitY=0.5;exitDx=0;exitDy=0;entryX=0;entryY=0.5;entryDx=0;entryDy=0;startArrow=classic;startFill=1;" edge="1" parent="1" source="thT0tMfzGtY_ff9w-yVD-3" target="thT0tMfzGtY_ff9w-yVD-10">
          <mxGeometry relative="1" as="geometry" />
        </mxCell>
        <mxCell id="thT0tMfzGtY_ff9w-yVD-3" value="" style="rounded=0;whiteSpace=wrap;html=1;" vertex="1" parent="1">
          <mxGeometry x="190" y="405" width="130" height="170" as="geometry" />
        </mxCell>
        <mxCell id="thT0tMfzGtY_ff9w-yVD-4" value="OutboundHandler2" style="rounded=0;whiteSpace=wrap;html=1;" vertex="1" parent="1">
          <mxGeometry x="200" y="425" width="110" height="40" as="geometry" />
        </mxCell>
        <mxCell id="thT0tMfzGtY_ff9w-yVD-5" value="prev" style="rounded=0;whiteSpace=wrap;html=1;" vertex="1" parent="1">
          <mxGeometry x="200" y="475" width="110" height="40" as="geometry" />
        </mxCell>
        <mxCell id="thT0tMfzGtY_ff9w-yVD-6" value="next" style="rounded=0;whiteSpace=wrap;html=1;" vertex="1" parent="1">
          <mxGeometry x="200" y="525" width="110" height="40" as="geometry" />
        </mxCell>
        <mxCell id="thT0tMfzGtY_ff9w-yVD-7" value="pipeline" style="shape=process;whiteSpace=wrap;html=1;backgroundOutline=1;rotation=90;" vertex="1" parent="1">
          <mxGeometry x="-20" y="447.5" width="215" height="85" as="geometry" />
        </mxCell>
        <mxCell id="thT0tMfzGtY_ff9w-yVD-26" style="edgeStyle=orthogonalEdgeStyle;rounded=0;orthogonalLoop=1;jettySize=auto;html=1;entryX=0;entryY=0.5;entryDx=0;entryDy=0;startArrow=classic;startFill=1;" edge="1" parent="1" source="thT0tMfzGtY_ff9w-yVD-8" target="thT0tMfzGtY_ff9w-yVD-3">
          <mxGeometry relative="1" as="geometry" />
        </mxCell>
        <mxCell id="thT0tMfzGtY_ff9w-yVD-8" value="head" style="rounded=0;whiteSpace=wrap;html=1;" vertex="1" parent="1">
          <mxGeometry x="52.5" y="425" width="70" height="30" as="geometry" />
        </mxCell>
        <mxCell id="thT0tMfzGtY_ff9w-yVD-9" value="tail" style="rounded=0;whiteSpace=wrap;html=1;" vertex="1" parent="1">
          <mxGeometry x="52.5" y="530" width="70" height="30" as="geometry" />
        </mxCell>
        <mxCell id="thT0tMfzGtY_ff9w-yVD-10" value="" style="rounded=0;whiteSpace=wrap;html=1;" vertex="1" parent="1">
          <mxGeometry x="360" y="405" width="130" height="170" as="geometry" />
        </mxCell>
        <mxCell id="thT0tMfzGtY_ff9w-yVD-11" value="OutboundHandler1" style="rounded=0;whiteSpace=wrap;html=1;" vertex="1" parent="1">
          <mxGeometry x="370" y="425" width="110" height="40" as="geometry" />
        </mxCell>
        <mxCell id="thT0tMfzGtY_ff9w-yVD-12" value="prev" style="rounded=0;whiteSpace=wrap;html=1;" vertex="1" parent="1">
          <mxGeometry x="370" y="475" width="110" height="40" as="geometry" />
        </mxCell>
        <mxCell id="thT0tMfzGtY_ff9w-yVD-13" value="next" style="rounded=0;whiteSpace=wrap;html=1;" vertex="1" parent="1">
          <mxGeometry x="370" y="525" width="110" height="40" as="geometry" />
        </mxCell>
        <mxCell id="thT0tMfzGtY_ff9w-yVD-14" value="" style="rounded=0;whiteSpace=wrap;html=1;" vertex="1" parent="1">
          <mxGeometry x="530" y="405" width="130" height="170" as="geometry" />
        </mxCell>
        <mxCell id="thT0tMfzGtY_ff9w-yVD-15" value="InboundHandler1" style="rounded=0;whiteSpace=wrap;html=1;" vertex="1" parent="1">
          <mxGeometry x="540" y="425" width="110" height="40" as="geometry" />
        </mxCell>
        <mxCell id="thT0tMfzGtY_ff9w-yVD-16" value="prev" style="rounded=0;whiteSpace=wrap;html=1;" vertex="1" parent="1">
          <mxGeometry x="540" y="475" width="110" height="40" as="geometry" />
        </mxCell>
        <mxCell id="thT0tMfzGtY_ff9w-yVD-17" value="next" style="rounded=0;whiteSpace=wrap;html=1;" vertex="1" parent="1">
          <mxGeometry x="540" y="525" width="110" height="40" as="geometry" />
        </mxCell>
        <mxCell id="thT0tMfzGtY_ff9w-yVD-18" value="" style="rounded=0;whiteSpace=wrap;html=1;" vertex="1" parent="1">
          <mxGeometry x="700" y="405" width="130" height="170" as="geometry" />
        </mxCell>
        <mxCell id="thT0tMfzGtY_ff9w-yVD-19" value="InboundHandler2" style="rounded=0;whiteSpace=wrap;html=1;" vertex="1" parent="1">
          <mxGeometry x="710" y="425" width="110" height="40" as="geometry" />
        </mxCell>
        <mxCell id="thT0tMfzGtY_ff9w-yVD-20" value="prev" style="rounded=0;whiteSpace=wrap;html=1;" vertex="1" parent="1">
          <mxGeometry x="710" y="475" width="110" height="40" as="geometry" />
        </mxCell>
        <mxCell id="thT0tMfzGtY_ff9w-yVD-21" value="next" style="rounded=0;whiteSpace=wrap;html=1;" vertex="1" parent="1">
          <mxGeometry x="710" y="525" width="110" height="40" as="geometry" />
        </mxCell>
        <mxCell id="thT0tMfzGtY_ff9w-yVD-22" value="&lt;div&gt;pipeline.addLast(new OutboundHandler2());&lt;/div&gt;&lt;div&gt;pipeline.addLast(new OutboundHandler1());&lt;/div&gt;&lt;div&gt;&lt;br&gt;&lt;/div&gt;&lt;div&gt;pipeline.addLast(new InboundHandler1());&lt;/div&gt;&lt;div&gt;pipeline.addLast(new InboundHandler2());&lt;/div&gt;" style="text;html=1;strokeColor=none;fillColor=none;align=center;verticalAlign=middle;whiteSpace=wrap;rounded=0;" vertex="1" parent="1">
          <mxGeometry x="220" y="180" width="430" height="100" as="geometry" />
        </mxCell>
        <mxCell id="thT0tMfzGtY_ff9w-yVD-30" style="edgeStyle=orthogonalEdgeStyle;rounded=0;orthogonalLoop=1;jettySize=auto;html=1;exitX=1;exitY=0.5;exitDx=0;exitDy=0;entryX=0;entryY=0.5;entryDx=0;entryDy=0;startArrow=classic;startFill=1;" edge="1" parent="1">
          <mxGeometry relative="1" as="geometry">
            <mxPoint x="490" y="489.5" as="sourcePoint" />
            <mxPoint x="530" y="489.5" as="targetPoint" />
          </mxGeometry>
        </mxCell>
        <mxCell id="thT0tMfzGtY_ff9w-yVD-31" style="edgeStyle=orthogonalEdgeStyle;rounded=0;orthogonalLoop=1;jettySize=auto;html=1;exitX=1;exitY=0.5;exitDx=0;exitDy=0;entryX=0;entryY=0.5;entryDx=0;entryDy=0;startArrow=classic;startFill=1;" edge="1" parent="1">
          <mxGeometry relative="1" as="geometry">
            <mxPoint x="660" y="489.5" as="sourcePoint" />
            <mxPoint x="700" y="489.5" as="targetPoint" />
          </mxGeometry>
        </mxCell>
        <mxCell id="thT0tMfzGtY_ff9w-yVD-33" style="edgeStyle=orthogonalEdgeStyle;rounded=0;orthogonalLoop=1;jettySize=auto;html=1;exitX=1;exitY=0.5;exitDx=0;exitDy=0;entryX=1;entryY=0.5;entryDx=0;entryDy=0;startArrow=classic;startFill=1;" edge="1" parent="1" source="thT0tMfzGtY_ff9w-yVD-9" target="thT0tMfzGtY_ff9w-yVD-21">
          <mxGeometry relative="1" as="geometry">
            <mxPoint x="670" y="499.5" as="sourcePoint" />
            <mxPoint x="710" y="499.5" as="targetPoint" />
            <Array as="points">
              <mxPoint x="150" y="545" />
              <mxPoint x="150" y="640" />
              <mxPoint x="840" y="640" />
              <mxPoint x="840" y="545" />
            </Array>
          </mxGeometry>
        </mxCell>
      </root>
    </mxGraphModel>
  </diagram>
</mxfile>
